<!-- <svg role="img" fill="#ffffff" viewBox="0 0 24 24" xmlns="http://www.w3.org/2000/svg">
<title>Django</title>
<path d="M11.146 0h3.924v18.166c-2.013.382-3.491.535-5.096.535-4.791 0-7.288-2.166-7.288-6.32 0-4.002 2.65-6.6 6.753-6.6.637 0 1.121.05 1.707.203zm0 9.143a3.894 3.894 0 00-1.325-.204c-1.988 0-3.134 1.223-3.134 3.365 0 2.09 1.096 3.236 3.109 3.236.433 0 .79-.025 1.35-.102V9.142zM21.314 6.06v9.098c0 3.134-.229 4.638-.917 5.937-.637 1.249-1.478 2.039-3.211 2.905l-3.644-1.733c1.733-.815 2.574-1.53 3.109-2.625.561-1.121.739-2.421.739-5.835V6.059h3.924zM17.39.021h3.924v4.026H17.39z"/></svg> -->
<svg  xmlns="http://www.w3.org/2000/svg"  width="32"  height="32"  viewBox="0 0 24 24"  fill="none"  stroke="#ffff"  stroke-width="1"  stroke-linecap="round"  stroke-linejoin="round">
<path stroke="none" d="M0 0h24v24H0z" fill="none"/>
<path d="M3 3m0 3a3 3 0 0 1 3 -3h12a3 3 0 0 1 3 3v12a3 3 0 0 1 -3 3h-12a3 3 0 0 1 -3 -3z" />
<path d="M12 7v8.5l-2.015 .201a2.715 2.715 0 1 1 0 -5.402l2.015 .201" />
<path d="M16 7v.01" />
<path d="M16 10v5.586c0 .905 -.36 1.774 -1 2.414" />
</svg>
